<mxfile host="app.diagrams.net" agent="Mozilla/5.0 (Windows NT 10.0; Win64; x64) AppleWebKit/537.36 (KHTML, like Gecko) Chrome/138.0.0.0 Safari/537.36 OPR/122.0.0.0" version="28.2.5">
  <diagram name="Página-1" id="ofHfS44cybs0vWze6UYh">
    <mxGraphModel dx="1157" dy="656" grid="1" gridSize="10" guides="1" tooltips="1" connect="1" arrows="1" fold="1" page="1" pageScale="1" pageWidth="827" pageHeight="1169" math="0" shadow="0">
      <root>
        <mxCell id="0" />
        <mxCell id="1" parent="0" />
        <mxCell id="PUIcjaC6gR7d_bjo0q7p-32" value="" style="rounded=0;whiteSpace=wrap;html=1;" vertex="1" parent="1">
          <mxGeometry x="87" y="402.5" width="740" height="570" as="geometry" />
        </mxCell>
        <mxCell id="PUIcjaC6gR7d_bjo0q7p-30" value="" style="rounded=0;whiteSpace=wrap;html=1;" vertex="1" parent="1">
          <mxGeometry x="180" y="480" width="600" height="415" as="geometry" />
        </mxCell>
        <mxCell id="PUIcjaC6gR7d_bjo0q7p-28" style="edgeStyle=orthogonalEdgeStyle;rounded=0;orthogonalLoop=1;jettySize=auto;html=1;" edge="1" parent="1" source="PUIcjaC6gR7d_bjo0q7p-1" target="PUIcjaC6gR7d_bjo0q7p-2">
          <mxGeometry relative="1" as="geometry" />
        </mxCell>
        <mxCell id="PUIcjaC6gR7d_bjo0q7p-29" style="edgeStyle=orthogonalEdgeStyle;rounded=0;orthogonalLoop=1;jettySize=auto;html=1;" edge="1" parent="1" source="PUIcjaC6gR7d_bjo0q7p-1" target="PUIcjaC6gR7d_bjo0q7p-6">
          <mxGeometry relative="1" as="geometry" />
        </mxCell>
        <mxCell id="PUIcjaC6gR7d_bjo0q7p-1" value="Cliente" style="shape=umlActor;verticalLabelPosition=bottom;verticalAlign=top;html=1;" vertex="1" parent="1">
          <mxGeometry x="210" y="585" width="30" height="60" as="geometry" />
        </mxCell>
        <mxCell id="PUIcjaC6gR7d_bjo0q7p-2" value="" style="ellipse;whiteSpace=wrap;html=1;" vertex="1" parent="1">
          <mxGeometry x="360" y="525" width="120" height="60" as="geometry" />
        </mxCell>
        <mxCell id="PUIcjaC6gR7d_bjo0q7p-3" value="Realizar Pedido" style="text;html=1;align=center;verticalAlign=middle;whiteSpace=wrap;rounded=0;" vertex="1" parent="1">
          <mxGeometry x="390" y="540" width="60" height="30" as="geometry" />
        </mxCell>
        <mxCell id="PUIcjaC6gR7d_bjo0q7p-4" value="" style="ellipse;whiteSpace=wrap;html=1;" vertex="1" parent="1">
          <mxGeometry x="640" y="525" width="120" height="60" as="geometry" />
        </mxCell>
        <mxCell id="PUIcjaC6gR7d_bjo0q7p-5" value="Efetuar Pagamento" style="text;html=1;align=center;verticalAlign=middle;whiteSpace=wrap;rounded=0;" vertex="1" parent="1">
          <mxGeometry x="670" y="540" width="60" height="30" as="geometry" />
        </mxCell>
        <mxCell id="PUIcjaC6gR7d_bjo0q7p-6" value="" style="ellipse;whiteSpace=wrap;html=1;" vertex="1" parent="1">
          <mxGeometry x="360" y="610" width="120" height="60" as="geometry" />
        </mxCell>
        <mxCell id="PUIcjaC6gR7d_bjo0q7p-7" value="Visualizar Cardápio" style="text;html=1;align=center;verticalAlign=middle;whiteSpace=wrap;rounded=0;" vertex="1" parent="1">
          <mxGeometry x="390" y="625" width="60" height="30" as="geometry" />
        </mxCell>
        <mxCell id="PUIcjaC6gR7d_bjo0q7p-24" style="edgeStyle=orthogonalEdgeStyle;rounded=0;orthogonalLoop=1;jettySize=auto;html=1;" edge="1" parent="1" source="PUIcjaC6gR7d_bjo0q7p-8" target="PUIcjaC6gR7d_bjo0q7p-11">
          <mxGeometry relative="1" as="geometry" />
        </mxCell>
        <mxCell id="PUIcjaC6gR7d_bjo0q7p-8" value="&lt;div&gt;Garçom&lt;/div&gt;" style="shape=umlActor;verticalLabelPosition=bottom;verticalAlign=top;html=1;" vertex="1" parent="1">
          <mxGeometry x="210" y="725" width="30" height="60" as="geometry" />
        </mxCell>
        <mxCell id="PUIcjaC6gR7d_bjo0q7p-11" value="" style="ellipse;whiteSpace=wrap;html=1;" vertex="1" parent="1">
          <mxGeometry x="360" y="725" width="120" height="60" as="geometry" />
        </mxCell>
        <mxCell id="PUIcjaC6gR7d_bjo0q7p-12" value="Entregar Pedido" style="text;html=1;align=center;verticalAlign=middle;whiteSpace=wrap;rounded=0;" vertex="1" parent="1">
          <mxGeometry x="390" y="740" width="60" height="30" as="geometry" />
        </mxCell>
        <mxCell id="PUIcjaC6gR7d_bjo0q7p-22" value="&amp;lt;&amp;lt;include&amp;gt;&amp;gt;" style="endArrow=open;endSize=12;dashed=1;html=1;rounded=0;exitX=1;exitY=0.5;exitDx=0;exitDy=0;entryX=0;entryY=0.5;entryDx=0;entryDy=0;" edge="1" parent="1" source="PUIcjaC6gR7d_bjo0q7p-2" target="PUIcjaC6gR7d_bjo0q7p-4">
          <mxGeometry width="160" relative="1" as="geometry">
            <mxPoint x="300" y="680" as="sourcePoint" />
            <mxPoint x="460" y="680" as="targetPoint" />
          </mxGeometry>
        </mxCell>
        <mxCell id="PUIcjaC6gR7d_bjo0q7p-31" value="&lt;div style=&quot;&quot;&gt;&lt;span style=&quot;background-color: transparent; color: light-dark(rgb(0, 0, 0), rgb(255, 255, 255));&quot;&gt;Restaurante Online&lt;/span&gt;&lt;/div&gt;" style="text;html=1;align=center;verticalAlign=middle;whiteSpace=wrap;rounded=0;" vertex="1" parent="1">
          <mxGeometry x="450" y="850" width="60" height="30" as="geometry" />
        </mxCell>
        <mxCell id="PUIcjaC6gR7d_bjo0q7p-38" style="edgeStyle=orthogonalEdgeStyle;rounded=0;orthogonalLoop=1;jettySize=auto;html=1;" edge="1" parent="1" source="PUIcjaC6gR7d_bjo0q7p-33" target="PUIcjaC6gR7d_bjo0q7p-35">
          <mxGeometry relative="1" as="geometry" />
        </mxCell>
        <mxCell id="PUIcjaC6gR7d_bjo0q7p-33" value="Sistema de&amp;nbsp;&lt;div&gt;Pagamento&lt;/div&gt;" style="shape=umlActor;verticalLabelPosition=bottom;verticalAlign=top;html=1;" vertex="1" parent="1">
          <mxGeometry x="120" y="657.5" width="30" height="60" as="geometry" />
        </mxCell>
        <mxCell id="PUIcjaC6gR7d_bjo0q7p-35" value="" style="ellipse;whiteSpace=wrap;html=1;" vertex="1" parent="1">
          <mxGeometry x="640" y="657.5" width="120" height="60" as="geometry" />
        </mxCell>
        <mxCell id="PUIcjaC6gR7d_bjo0q7p-36" value="Confirmar Pagamento" style="text;html=1;align=center;verticalAlign=middle;whiteSpace=wrap;rounded=0;" vertex="1" parent="1">
          <mxGeometry x="670" y="672.5" width="60" height="30" as="geometry" />
        </mxCell>
      </root>
    </mxGraphModel>
  </diagram>
</mxfile>
